<svg xmlns="http://www.w3.org/2000/svg" viewBox="0 0 24 24" fill="none">
  <path d="M12 8.1a3.9 3.9 0 1 0 0 7.8 3.9 3.9 0 0 0 0-7.8Z" stroke="#52627a" stroke-width="1.8"/>
  <path d="m19.1 13.8 1.1.9-1.8 3.1-1.35-.54a7.5 7.5 0 0 1-1.72 1l-.2 1.43h-3.6l-.2-1.43a7.5 7.5 0 0 1-1.72-1l-1.35.54-1.8-3.1 1.1-.9a7.68 7.68 0 0 1 0-2.02l-1.1-.9 1.8-3.1 1.35.54c.53-.42 1.1-.75 1.72-1l.2-1.43h3.6l.2 1.43c.62.25 1.2.58 1.72 1l1.35-.54 1.8 3.1-1.1.9c.1.67.1 1.35 0 2.02Z" stroke="#52627a" stroke-width="1.8" stroke-linejoin="round"/>
</svg>
